HIERARCHY
ROOT root
{
	OFFSET	0	13.1	24.9
	CHANNELS 6  Xposition Yposition Zposition Xrotation Yrotation Zrotation
	JOINT spine_1
	{
		OFFSET	0	9.99999	0
		CHANNELS 3  Xrotation Yrotation Zrotation
		JOINT spine_2
		{
			OFFSET	0	112	-10
			CHANNELS 3  Xrotation Yrotation Zrotation
			JOINT spine_3
			{
				OFFSET	0	206.5	19.3
				CHANNELS 3  Xrotation Yrotation Zrotation
				JOINT spine_4
				{
					OFFSET	0	110.4	14.6
					CHANNELS 3  Xrotation Yrotation Zrotation
					JOINT neck_1
					{
						OFFSET	0	71.8	-50.3
						CHANNELS 3  Xrotation Yrotation Zrotation
						JOINT neck_2
						{
							OFFSET	0	86.2	-25.8
							CHANNELS 3  Xrotation Yrotation Zrotation
							JOINT head_ee
							{
								OFFSET	0	179.8	-8.7
								CHANNELS 3  Xrotation Yrotation Zrotation
								End Site
								{
									OFFSET	1	0	0
								}
							}
						}
					}
					JOINT left_clavicle
					{
						OFFSET	-43.2	22.4	-70.8
						CHANNELS 3  Xrotation Yrotation Zrotation
						JOINT left_shoulder
						{
							OFFSET	-93.9	-5.79999	48.7
							CHANNELS 3  Xrotation Yrotation Zrotation
							JOINT left_elbow
							{
								OFFSET	-291.4	-30.8	15.2
								CHANNELS 3  Xrotation Yrotation Zrotation
								JOINT left_lowarm_twist
								{
									OFFSET	-110.7	-3.89999	13.6
									CHANNELS 3  Xrotation Yrotation Zrotation
									JOINT left_hand
									{
										OFFSET	-110.7	-3.89999	13.6
										CHANNELS 3  Xrotation Yrotation Zrotation
										JOINT left_ee
										{
											OFFSET	-80.8	-5.10001	12.1
											CHANNELS 3  Xrotation Yrotation Zrotation
											End Site
											{
												OFFSET	1	0	0
											}
										}
									}
								}
							}
						}
					}
					JOINT right_clavicle
					{
						OFFSET	43.2	22.4	-70.8
						CHANNELS 3  Xrotation Yrotation Zrotation
						JOINT right_shoulder
						{
							OFFSET	93.9	-5.79999	48.7
							CHANNELS 3  Xrotation Yrotation Zrotation
							JOINT right_elbow
							{
								OFFSET	291.4	-30.8	15.2
								CHANNELS 3  Xrotation Yrotation Zrotation
								JOINT right_lowarm_twist
								{
									OFFSET	110.7	-3.89999	13.6
									CHANNELS 3  Xrotation Yrotation Zrotation
									JOINT right_hand
									{
										OFFSET	110.7	-3.89999	13.6
										CHANNELS 3  Xrotation Yrotation Zrotation
										JOINT right_ee
										{
											OFFSET	80.8	-5.10001	12.1
											CHANNELS 3  Xrotation Yrotation Zrotation
											End Site
											{
												OFFSET	1	0	0
											}
										}
									}
								}
							}
						}
					}
				}
			}
		}
	}
	JOINT left_hip
	{
		OFFSET	-82.8	-127.5	0.300001
		CHANNELS 3  Xrotation Yrotation Zrotation
		JOINT left_knee
		{
			OFFSET	-28.2	-396.7	2.2
			CHANNELS 3  Xrotation Yrotation Zrotation
			JOINT left_ankle
			{
				OFFSET	-11.7	-411.3	35.4
				CHANNELS 3  Xrotation Yrotation Zrotation
				JOINT left_toes
				{
					OFFSET	0	-60	-88.6
					CHANNELS 3  Xrotation Yrotation Zrotation
					JOINT left_foot_ee
					{
						OFFSET	-22.5	-16.5	-42.2
						CHANNELS 3  Xrotation Yrotation Zrotation
						End Site
						{
							OFFSET	1	0	0
						}
					}
				}
			}
		}
	}
	JOINT right_hip
	{
		OFFSET	82.8	-127.5	0.300001
		CHANNELS 3  Xrotation Yrotation Zrotation
		JOINT right_knee
		{
			OFFSET	28.2	-396.7	2.2
			CHANNELS 3  Xrotation Yrotation Zrotation
			JOINT right_ankle
			{
				OFFSET	11.7	-411.3	35.4
				CHANNELS 3  Xrotation Yrotation Zrotation
				JOINT right_toes
				{
					OFFSET	0	-60	-88.6
					CHANNELS 3  Xrotation Yrotation Zrotation
					JOINT right_foot_ee
					{
						OFFSET	22.5	-16.5	-42.2
						CHANNELS 3  Xrotation Yrotation Zrotation
						End Site
						{
							OFFSET	1	0	0
						}
					}
				}
			}
		}
	}
}
MOTION
Frames: 6
Frame Time: 0.02
3177.02 653.055 -1669.29 -12.2031613078 76.489381066 11.2891637852 -0.992617 0.430604 2.74494 -0.988461 0.255132 2.76676 -0.972796 -0.379052 2.75253 -0.983363 0.0602425 2.77784 -9.43638 0.830009 -6.89931 -9.30527 6.28961 -6.57013 -0.0 0.0 -0.0 -5.72939 21.4858 -5.73628 -8.60417 -17.5671 73.3336 0.171719 -4.86227 0.00729069 4.40985 0.134367 -0.547114 0.932487 29.4881 16.6755 -0.0 0.0 -0.0 9.98938 16.5414 -19.5957 25.9073 3.95175 -66.9771 3.74558 61.661 -2.23603 23.6555 -0.218512 2.99248 1.15947 -1.67603 -8.44335 0.0 0.0 0.0 29.0678 3.0588 -3.39126 3.31898 -0.150836 -0.486851 2.1581 8.65257 -0.314133 -18.2288 0.0 0.0 -0.0 0.0 -0.0 -20.504 42.5105 -4.38784 -1.53894 -0.0602997 -0.228468 40.542 0.884388 4.92923 16.0694 -0.0 -0.0 0.0 0.0 0.0 
3134.35345583 650.398 -1663.81573678 -12.4995108928 75.8634438431 11.6416716243 -0.886042 0.367897 2.66333 -0.882117 0.197739 2.68132 -0.869906 -0.410837 2.65705 -0.879758 0.0137924 2.68856 -8.05252 0.112933 -6.51597 -7.92885 4.81927 -6.43907 -0.0 0.0 -0.0 -5.09418 20.7357 -5.00441 -8.72939 -17.2193 73.7891 0.180672 -5.11444 0.00806904 2.88424 0.0926555 -0.356703 1.14088 29.3952 17.8275 -0.0 0.0 -0.0 9.0964 20.8882 -17.3211 20.7517 7.81622 -64.2354 3.69596 61.3411 -2.19242 22.6806 -0.234044 2.86892 1.28506 -3.75335 -10.1096 0.0 0.0 0.0 28.7475 3.56464 -2.73317 -1.35372 0.053368 0.200887 0.540231 8.30477 -0.0789559 -19.7092 0.0 0.0 -0.0 0.0 -0.0 -21.6502 42.5099 -2.68988 -4.40806 -0.156228 -0.658299 40.3828 -0.73522 4.90371 17.2127 -0.0 -0.0 0.0 0.0 0.0 
3111.80279813 656.024 -1661.24230938 -11.8641238403 75.4021778742 11.2089818899 -0.802439 0.365357 2.68752 -0.798441 0.193667 2.70531 -0.786385 -0.416304 2.68011 -0.796409 0.0120316 2.7122 -9.05765 0.249691 -6.10086 -8.95263 4.68754 -5.94182 -0.0 0.0 -0.0 -4.40433 20.2084 -4.11376 -8.71296 -17.5207 72.8754 0.189352 -5.35876 0.00886132 2.26475 0.0742718 -0.279709 1.41947 29.6194 19.476 -0.0 0.0 -0.0 9.49081 22.4082 -18.073 16.5643 7.69447 -62.7067 3.67292 61.1902 -2.17222 22.3713 -0.238532 2.82967 1.55113 -2.83318 -11.5429 0.0 0.0 0.0 28.2244 3.69712 -2.65216 -3.3176 0.122309 0.494386 1.0671 9.2774 -0.155776 -18.7235 0.0 0.0 -0.0 0.0 -0.0 -22.5914 42.3731 -1.40931 -5.12393 -0.176796 -0.766235 40.147 -0.93268 4.88237 17.5386 -0.0 -0.0 0.0 0.0 0.0 
3111.81238169 656.024 -1661.1650226 -11.9179754977 75.4686250713 11.2646215329 -0.802439 0.365357 2.68752 -0.798441 0.193667 2.70531 -0.786385 -0.416304 2.68011 -0.796409 0.0120316 2.7122 -9.05765 0.249691 -6.10086 -8.95263 4.68754 -5.94182 -0.0 0.0 -0.0 -4.40433 20.2084 -4.11376 -8.71296 -17.5207 72.8754 0.189352 -5.35876 0.00886132 2.26475 0.0742718 -0.279709 1.41947 29.6194 19.476 -0.0 0.0 -0.0 9.49081 22.4082 -18.073 16.5643 7.69447 -62.7067 3.67292 61.1902 -2.17222 22.3713 -0.238532 2.82967 1.55113 -2.83318 -11.5429 0.0 0.0 0.0 28.2244 3.69712 -2.65216 -3.3176 0.122309 0.494386 1.0671 9.2774 -0.155776 -18.7235 0.0 0.0 -0.0 0.0 -0.0 -22.5914 42.3731 -1.40931 -5.12393 -0.176796 -0.766235 40.147 -0.93268 4.88237 17.5386 -0.0 -0.0 0.0 0.0 0.0 
3044.39625413 676.369 -1659.60988997 -7.61348806489 77.0452103828 8.10399709437 -0.777492 0.00754448 2.24938 -0.774688 -0.135568 2.2453 -0.778403 -0.634161 2.15819 -0.784789 -0.285446 2.23121 -9.74435 0.221448 -3.96944 -9.70102 3.1175 -3.8256 -0.0 0.0 -0.0 -3.46329 18.193 -3.14323 -3.65372 -18.4093 72.9511 0.22238 -6.28653 0.0122121 -0.0952742 -0.00336684 0.0117018 1.58241 29.5211 20.3903 -0.0 0.0 -0.0 8.91021 18.1639 -17.1055 4.80047 10.3726 -63.328 3.35362 58.9407 -1.89547 16.7462 -0.283073 2.11285 1.73019 -3.64556 -13.0723 0.0 0.0 0.0 22.5313 5.14491 -2.00681 -5.20862 0.17914 0.779022 8.49884 7.55213 -1.2142 -15.8446 0.0 0.0 -0.0 0.0 -0.0 -19.348 38.7111 -2.63194 -12.1991 -0.307018 -1.84343 40.5003 -6.00611 4.90172 17.1145 -0.0 -0.0 0.0 0.0 0.0 
3028.22760422 676.897 -1661.13900115 -7.01977877207 75.6485753669 7.4252324272 -0.66694 0.0040574 2.32197 -0.663952 -0.143664 2.31753 -0.668142 -0.653937 2.22804 -0.67495 -0.293952 2.3033 -12.6506 0.123831 -1.57663 -12.6444 1.23392 -1.47307 -0.0 0.0 -0.0 -2.98746 16.7821 -2.68942 -2.24671 -19.0469 72.8021 0.188132 -5.32444 0.00874773 -1.78447 -0.0662826 0.218226 1.64958 29.615 20.802 -0.0 0.0 -0.0 8.68389 17.1846 -16.6686 3.28128 11.918 -64.2579 3.13027 57.17 -1.70591 12.8503 -0.272612 1.61545 1.51475 -5.46357 -12.3129 0.0 0.0 0.0 20.5688 5.46344 -1.78891 -3.54623 0.129679 0.5287 10.3346 6.90553 -1.46747 -16.2082 0.0 0.0 -0.0 0.0 -0.0 -17.1037 38.3719 -2.91398 -16.8474 -0.31985 -2.55631 40.4313 -5.73649 4.89543 17.235 -0.0 -0.0 0.0 0.0 0.0 
